<?xml version="1.0" encoding="UTF-8"?>
<svg id="_x3C_Layer_x3E_" xmlns="http://www.w3.org/2000/svg" version="1.1" viewBox="0 0 2840 2840">
  <!-- Generator: Adobe Illustrator 29.7.1, SVG Export Plug-In . SVG Version: 2.1.1 Build 8)  -->
  <defs>
    <style>
      .st0 {
        fill: #d39163;
      }

      .st1 {
        fill: #fff;
      }

      .st2 {
        opacity: .5;
      }

      .st3 {
        fill: #3a0e05;
      }

      .st4 {
        fill: #7f433b;
      }
    </style>
  </defs>
  <g>
    <path class="st0" d="M2362.22,1050.54c-37.63,78.48-135.73,109.51-186.16,81.3,2.08,40.35-2.24,105.62-2.24,105.62,80.75,45.9,211.86-39.25,245.03-115.63-3.79-4.32-56.63-71.29-56.63-71.29Z"/>
    <g class="st2">
      <path class="st4" d="M2362.22,1050.54c-9.15,19.08-21.91,35.3-36.66,48.6,7.9,3.48,14.66,9.65,19.45,16.57,6.16,8.9,8.79,18.61,8.71,29.38-.08,10.68-6.82,26.46-15.71,32.93-10.71,7.8-20.18,16.4-32.67,21.5-11.02,4.49-21.79,6.57-33.74,5.23-14.94-1.68-33.05-10.32-38.85-25.53-5.46-14.33-4.47-26.93.86-37.9-21.62,2.32-41.89-.71-57.56-9.47,2.08,40.36-2.24,105.62-2.24,105.62,80.75,45.9,211.86-39.25,245.03-115.63-3.79-4.32-56.63-71.29-56.63-71.29Z"/>
    </g>
    <path class="st1" d="M2489.27,1110.81c-46.06,124.16-239.02-74.9-111.43-128.97,109.65-46.46,120.83,103.62,111.43,128.97Z"/>
    <path class="st1" d="M2426.63,1080c-59.47-13.87-83.42-109.19-44.28-151.42,39.14-42.23,67.04-107.26,47.27-152.42-19.78-45.16,53.83-68.45,76.08,7.13,8.83,29.99-13.13,88.99-13.13,88.99,35.21-40.42,87.72-40.87,84.21,12.97,30.13-25.38,86.06,19.94,53.26,53.05,39.69-14.28,59.41,21,16.63,63.37,13.48-11.95,24.91-21.75,53.23-17.86,33.67,4.62,34.28,56.66-12.26,58.33-37.37,1.34-55.97,9.88-94.75,41.48-76.44,62.28-141.5,50.93-166.27-3.61Z"/>
    <path class="st0" d="M517.53,953.84c29.22,81.98,123.54,123.1,176.63,100.32-6.29,39.92-8.81,105.28-8.81,105.28-85.11,37.2-206.59-61.19-231.6-140.62,4.22-3.9,63.77-64.98,63.77-64.98Z"/>
    <g class="st2">
      <path class="st4" d="M693.87,1059.82c-25.31,10.86-59.96,7.06-92.48-8.63,3.76,6.83,5.31,14.6,3.68,23.25-2.71,14.42-13.3,24.82-27.31,28.53-24.93,6.6-47.34-11.38-55.42-33.73-2.59-7.17-3.42-15.27-2.67-22.9.86-8.85,4.3-14.85,10.23-21.19,5.52-5.91,16.04-5.71,23.26-3.48,2.93.91,5.56,2.52,8.24,3.98.81.28,1.61.58,2.39.91-19.9-17.24-36.85-39.83-46.56-67.06,0,0-59.55,61.08-63.77,64.98,25.01,79.43,146.49,177.82,231.6,140.62,0,0,2.52-65.36,8.81-105.28Z"/>
    </g>
    <path class="st1" d="M384.89,1000.49c32.82,128.3,245.55-49.5,124.3-116.61-104.19-57.67-131,90.41-124.3,116.61Z"/>
    <path class="st1" d="M1056.49,2293.51c87.24-41.17,120.88-99.29,29.13-178.56-91.75-79.27-171.85-76.58-165.72,25.09,6.13,101.67,136.59,153.46,136.59,153.46Z"/>
    <path class="st1" d="M556.19,2017.47c81.07-76.35,221.92-88.95,309.36,153.25,0,0,33.66-25.53,50.3-45.8,35.31-43.01,218.66,89.48,180.13,165.89-19.75,39.16-36.82,91.85-81.38,151.51-44.56,59.67-245.5,22.68-380.22-98.79-171.65-154.76-155.09-253.64-78.19-326.07Z"/>
    <path class="st0" d="M1164.08,1749.19c-48.66,179.94-133.28,304.31-149.99,319.33,68.38,30.93,94.13,68.22,94.13,68.22,100.2-131.69,161.47-355.24,161.47-355.24,0,0-56.95-212.25-105.61-32.31Z"/>
    <g class="st2">
      <path class="st4" d="M1164.08,1749.19c-17.62,65.14-39.94,122.95-62.06,170.97,7.27-7.41,15.33-13.87,25.48-18.02,12-4.92,24.47-1.6,31.08,9.92,28.23,49.13-16.17,116-46.75,153.8-10.25,12.67-21.86,26.69-34.53,40.5,21.73,17.18,30.93,30.39,30.93,30.39,100.2-131.69,161.47-355.25,161.47-355.25l-105.62-32.31Z"/>
    </g>
    <path class="st0" d="M883.57,608.91c-3.06,6.36-6.65,12.44-11.04,18.09-21.73,27.92-58.05,38.89-90.48,53.03-80.29,35-114.4,147.49-125.68,228.13-6.79,48.52-4.05,98.11-12.5,146.38-7.6,43.43-24.12,84.96-30.91,128.52-9.42,60.47,2.11,119.16,26.76,174.51,19.2,43.1,21.94,91.56,39.97,135.18,18.99,45.96,51.95,58.52,92.03,87.16,60.9,43.52,52.43,97.89,92.15,153.26,37.95,52.91,99.69,88.79,164.73,94.08,46.59,3.79,94.38-6.93,139.77,4.24,29.08,7.16,55.18,22.87,82.45,35.23,109.02,49.42,236.06,44.37,351.81,13.89,26.62-7.01,53.41-15.37,80.94-14.87,31.2.56,61.31,12.49,92.49,13.46,44.6,1.39,86.88-19.71,123.74-44.86,34.52-23.55,66.8-51.77,88.27-87.62,23.05-38.51,32.37-83.55,50.77-124.49,26.58-59.13,71.18-107.89,110.1-159.75,38.91-51.86,73.7-111.1,75.12-175.92.81-36.9-9.3-73.03-15.47-109.42-22.92-134.96,34.9-257.4-6.57-391.04-14.03-45.2-65.77-79.4-96-113.8-43.62-49.63-80.2-105.45-123.22-155.71-43.9-51.29-72.94-55.31-139.91-69.65-77.51-16.6-126.27-81.06-202-93.78-69.28-11.63-143.68-1.36-207.1,28.89-8.03,3.83-16.29,8.07-25.19,8.03-8.48-.03-16.39-3.96-24.1-7.5-81.03-37.29-177.12-38.93-260.24-7.26-70.43,26.84-182.44,90.97-214.89,161.64-10.61,23.11-14.9,49.34-25.79,71.96Z"/>
    <g class="st2">
      <path class="st4" d="M778.18,678.4c-.59.25-1.19.49-1.78.75-32.79,14.3-57.78,41.62-76.75,74.32,21.68-29,52.9-50.04,78.53-75.07Z"/>
    </g>
    <g class="st2">
      <path class="st4" d="M2202.93,1176.25c-22.92-134.96,34.89-257.4-6.57-391.04-14.03-45.2-65.77-79.4-96.01-113.79-43.63-49.63-80.2-105.46-123.22-155.71-43.9-51.29-72.94-55.31-139.91-69.65-29.84-6.39-55.42-19.89-79.92-34.79,8.75,10.78,17.52,21.54,27.34,31.36,22.34,22.37,49.21,36.81,76.03,53.04,51.37,31.1,102.13,64.26,144.8,106.95,42.34,42.36,74.62,95.52,79.77,156.08,4.57,53.76-19.15,104.07-16.92,157,2.29,54.35,32.13,103.69,33.55,158.84,1.29,50.43-20.7,87.15-50.87,125.04-45.42,57.06-65.55,210.13-161.67,208.39-51.44-.93-83.89-53.38-133.4-15.46-34.48,26.4-55.61,72.01-69.74,111.94-14.42,40.76-15.05,98.44-56.94,122.39-32.82,18.76-74.55,6.09-109.42,2.62-53.1-5.29-105.89,22.45-154.5,39.97-50.42,18.17-102.07,27.45-155.64,28.61-62.33,1.35-118.08-19.67-174.26-44.24-32.3-14.13-71.77-27.17-100.91-47.32-64.71-44.73-4.46-127.4-19.54-182.8-18.2,21.27-52.81,25.39-88.27,14.73-23.22-6.98-37.09-30.76-36.8-53.99.01-.83.02-1.65.03-2.48.15-12.28,5.79-24.62,14.36-33.9,6.44-23.61-5-33.99-28.05-54.43-23.03-20.41-46.39-40.92-57.82-70.35-11.7-30.12-6.54-58.03.88-88.38,11.88-48.63,7.25-84.57-18.24-127.11-32.85-54.82-45.35-122.99-31.18-185.6-9.32,29.23-15.47,58.85-19.14,85.11-6.79,48.52-4.05,98.11-12.5,146.38-7.6,43.43-24.13,84.96-30.92,128.52-9.42,60.47,2.11,119.16,26.76,174.51,19.2,43.1,21.94,91.56,39.97,135.18,18.99,45.96,51.95,58.52,92.02,87.16,60.91,43.52,52.43,97.88,92.15,153.26,37.96,52.91,99.69,88.79,164.73,94.08,46.59,3.79,94.38-6.93,139.77,4.24,29.08,7.16,55.18,22.87,82.45,35.23,109.02,49.42,236.06,44.37,351.81,13.89,26.62-7.01,53.41-15.37,80.93-14.88,31.2.56,61.31,12.49,92.5,13.46,44.6,1.39,86.88-19.71,123.74-44.86,34.52-23.55,66.8-51.77,88.27-87.62,23.05-38.51,32.37-83.56,50.77-124.49,26.58-59.13,71.18-107.89,110.1-159.74,38.92-51.86,73.7-111.1,75.12-175.92.81-36.9-9.3-73.03-15.47-109.42Z"/>
    </g>
    <path class="st4" d="M930.84,1672.38c-26.33,63.18,112.98,141.42,159.94,65.53,46.96-75.89-132.91-130.39-159.94-65.53Z"/>
    <g class="st2">
      <path class="st3" d="M1028.03,1735.38c-30.53-1.88-59.5-16.07-75.7-42.35-8.88-14.39-5.93-30.58,2.58-43.34-11.01,4.65-19.63,12.02-24.07,22.68-26.33,63.18,112.98,141.42,159.94,65.53,6.26-10.12,8.39-19.85,7.48-28.97-15.54,20.36-45.53,27.97-70.24,26.45Z"/>
    </g>
    <path class="st4" d="M1262.86,1716.56c-30.38,97.56,242.9,184.7,291.08,32.12,48.18-152.58-261.33-127.64-291.08-32.12Z"/>
    <g class="st2">
      <path class="st3" d="M1514.88,1654.96c16.31,24.54,20.09,55.32.19,86.08-35.41,54.74-131.08,57.03-183.74,28.26-30.52-16.68-50.14-48.89-52.13-78.71-7.72,7.92-13.42,16.59-16.34,25.98-30.38,97.56,242.9,184.7,291.08,32.12,14.89-47.16-4.44-77.32-39.07-93.72Z"/>
    </g>
    <path class="st4" d="M757.38,1143.6c-56.15,28.97-35.83,102.1-6.51,142.95,29.32,40.85-35.98,192.83,98.71,190.48,134.69-2.35,42.31-402.84-92.2-333.43Z"/>
    <g class="st2">
      <path class="st3" d="M888.49,1409.62c-19.78,21.11-56.82,11.04-68.97-12.59-9.24-17.97-13.9-36.32-19.45-55.61-6.41-22.27-18.28-37.77-30.59-56.85-18.41-28.53-26.85-61.48-20.75-95.2,3.85-21.31,14.83-40.05,29.54-52.88-6.83,1.18-13.79,3.45-20.88,7.11-56.15,28.97-35.83,102.1-6.51,142.95,29.32,40.85-35.98,192.83,98.71,190.48,47.01-.82,66.33-50.15,65.88-111.06-5.53,15.46-14.3,30.13-26.97,43.65Z"/>
    </g>
    <path class="st4" d="M2090.54,776.81c-81.76,8.25-55.15,221.91,15.08,203.19,70.23-18.72,73.96-212.18-15.08-203.19Z"/>
    <g class="st2">
      <path class="st3" d="M2090.54,776.81c-3.16.32-6.1,1.04-8.93,1.95,22.54,19.4,32.39,56.01,31.17,83.31-1.77,39.47-22.15,70.09-56.27,84.88,11.46,23.75,28.36,38.58,49.11,33.05,70.22-18.72,73.96-212.18-15.08-203.19Z"/>
    </g>
    <path class="st4" d="M2104.64,1193.93c-108.13-7.31-147.88,221.19-48.43,223.84,109.59,2.92,141.61-217.54,48.43-223.84Z"/>
    <g class="st2">
      <path class="st3" d="M2127.66,1201.04c3.69,61.01-10.52,133.13-75.7,140.33-22.62,2.5-41.65-5.89-51.83-22.27-5.15,50.57,11.34,97.47,56.07,98.66,99.27,2.64,134.89-178,71.46-216.72Z"/>
    </g>
    <path class="st4" d="M1167.38,451.47c-47.88-1.99-85.55,25.46-127.98,42.05-54.84,21.45-75.31,80.63-95.43,131.34-4.46,11.24-8.99,22.85-8.76,34.94.54,27.93,27.86,49.98,55.68,52.44,27.82,2.46,54.89-10.4,77.43-26.89,22.54-16.49,42.12-36.82,65.05-52.77,24.13-16.78,51.69-28.49,74.54-46.98,22.86-18.49,41.17-46.78,36.51-75.81-5.53-34.46-42.19-56.88-77.05-58.33Z"/>
    <g class="st2">
      <path class="st3" d="M1244.44,509.8c-1.92-11.98-7.67-22.47-15.74-31.17,3,10.22,3.93,21.1,2.1,32.11-6.89,41.46-44.87,63.6-80.95,77.67-35.32,13.78-62.49,28.61-95.55,46.93-32.24,17.87-75.59,30.79-104.79-.29-2.42-2.58-4.51-5.2-6.45-7.83-4.14,10.51-8.06,21.33-7.84,32.57.54,27.93,27.86,49.98,55.68,52.44,27.82,2.46,54.89-10.4,77.43-26.89s42.12-36.82,65.05-52.77c24.13-16.78,51.69-28.49,74.54-46.98,22.86-18.49,41.17-46.78,36.51-75.81Z"/>
    </g>
    <path class="st4" d="M1720.76,1367.7c-3.41,3.63-6.58,7.38-9.48,11.21-31.35,41.32-48.98,93.19-47.95,145.14,1.4,70.97,37.61,140.43,94.99,182.22,32.01,23.31,74.94,22.83,100.9-9.73,30.96-38.82,38.21-111.17,40.36-158.91,1.56-34.5-2.87-69.89-18.04-100.92-10.73-21.94-20.16-38.65-24.72-62.37-3.5-18.25-11.49-29.44-29.64-37.67-38.78-17.59-79.8,2.72-106.42,31.03Z"/>
    <g class="st2">
      <path class="st3" d="M1899.58,1537.62c1.56-34.5-2.87-69.89-18.04-100.92-7.4-15.14-14.14-27.82-19.14-42,2.19,49.97,10.93,100.36-3.86,149.72-19.24,64.21-84.56,85.68-124.63,23.77-34.83-53.81-45.18-132.89-19.91-192.32.07-.15.17-.32.23-.48-.96,1.18-2.05,2.3-2.96,3.5-31.35,41.32-48.98,93.19-47.95,145.14,1.4,70.97,37.61,140.43,94.99,182.22,32.01,23.31,74.94,22.83,100.9-9.73,30.96-38.82,38.21-111.17,40.37-158.91Z"/>
    </g>
    <path class="st4" d="M1375.64,559.91c22.19,2.41,45.76-1.26,63.92-14.24,18.16-12.97,29.68-36.31,24.9-58.12-11.72-53.53-91.14-50.34-126.59-23.98-45.38,33.75-9.04,91.25,37.77,96.34Z"/>
    <g class="st2">
      <path class="st3" d="M1464.46,487.56c-11.72-53.53-91.14-50.34-126.59-23.98-4.34,3.23-7.72,6.72-10.62,10.32.91-.58,1.7-1.3,2.72-1.73,1.99-.81,3.96-1.67,5.9-2.58,1.2-.83,2.9-2,5.62-3.88,3.59-1.88,7.35-3.37,11.28-4.46,1.85-.62,2.97-.98,3.41-1.11.4-.16.75-.3,1.28-.51,4.01-1.83,8.13-3.39,12.35-4.7,4.36-1.32,8.88-2.49,13.37-3.24,18.67-3.08,36.51,5.97,43.02,23.99,6.18,17.11-1,37.66-17.77,45.94-13.54,6.69-28.02,8.92-42.97,7.38-8.03-.83-15.83-2.05-23.13-5.59-5.03-2.44-9.68-5.46-14.64-8.04-5.89-3.06-9.3-8.68-10.57-14.9-.46,28.09,26.56,55.97,58.51,59.45,22.19,2.41,45.76-1.27,63.92-14.24,18.16-12.97,29.68-36.31,24.9-58.12Z"/>
    </g>
    <path class="st4" d="M808.58,1059.5c17.62,12.58,41.15,13.85,62.4,9.72,51.69-10.03,82.26-36.89,91.98-88.4,9.13-48.39-1.27-102.3-31.81-141.5-38.67-49.64-114.41-60.35-150.42-4.24-17.19,26.79-9.96,62.55-10.14,92.58-.26,43.18-1.95,103.31,37.99,131.83Z"/>
    <g class="st2">
      <path class="st3" d="M931.16,839.32c-1.8-2.31-3.76-4.45-5.71-6.59,10.09,32.58,9.65,68.42-2.91,102.41-21,56.83-83.28,89.91-131.95,41.15-9.08-9.1-15.59-20.05-20.07-32.06.03,40.89,3.03,90.24,38.07,115.26,17.62,12.58,41.15,13.85,62.4,9.72,51.69-10.03,82.26-36.89,91.98-88.4,9.13-48.39-1.27-102.3-31.81-141.5Z"/>
    </g>
    <path class="st4" d="M1645.94,547.9c-5.1,16.63-4.09,34.61-.38,51.61,17.03,78.04,89,135.25,166.24,155.64,18.79,4.96,38.9,8.1,57.48,2.4,10.51-3.22,20.07-9.17,28.29-16.47,77.6-68.95,13.44-172.37-45.63-227.02-52.93-48.97-181.57-45.79-205.99,33.84Z"/>
    <g class="st2">
      <path class="st3" d="M1925,619.43c-9.09,42.52-47.72,76.64-98.76,69.96-71.44-9.36-137.46-82.95-134.14-155.73.75-16.43,4.85-30.61,11.24-42.71-26.9,10.07-48.73,28.68-57.41,56.96-5.1,16.63-4.09,34.61-.38,51.61,17.03,78.04,89,135.25,166.24,155.64,18.79,4.96,38.9,8.1,57.48,2.4,10.51-3.22,20.07-9.17,28.29-16.47,39.67-35.25,42.25-79.51,27.44-121.65Z"/>
    </g>
    <path class="st1" d="M1421.22,950.33c16.02,3.56,33,14.43,46.69,27.79,14.24-15.37,26.92-33.02,37.09-53.02,50.6-99.45,23.43-214.76-60.69-257.57-84.12-42.81-193.34,3.11-243.94,102.56-50.6,99.45-23.43,214.76,60.69,257.57,23.94,12.18,49.92,17.06,75.99,15.68-6.09-48.1,30.86-104.84,84.17-93Z"/>
    <path class="st1" d="M1778.75,845.78c-12.18-29.6-31.08-54.93-55.39-72.86-14.75-11-31.33-19.23-49.5-24.11-91.17-24.56-188.61,42.83-217.69,150.54-5.73,21.29-8.06,42.48-7.86,63.09,17.32,11.2,32.95,27.84,41.07,43.95,8.97,17.8,11.3,39.79,12.85,59.29,1,12.49-1.75,54.79,6.76,71.98,0,0,18.56-16.25,31.37-9.69,47.86-22.71,109.38-29.85,157.34-12.77,40.74-27.08,73.6-71.63,88.5-126.81,13.66-50.44,9.85-100.79-7.46-142.61Z"/>
    <path class="st1" d="M1377.52,1234.07c41.98,47.15,6.68,121.1,6.68,121.1,157.55,44.94,234.36-48.83,206.45-135.28-66.95,33.92-139.21,40-213.13,14.18Z"/>
    <path class="st4" d="M1000.24,1375.38c3.58,22.28,7.15,44.55,10.72,66.83,4.02,25.03,8.34,50.89,22.13,72.16,14.65,22.59,38.85,37.78,64.54,45.87,25.68,8.09,52.95,9.67,79.88,9.7,18.16.02,36.7-.71,53.71-7.04,49.59-18.45,72.96-99.24,52.99-144.93-10.21-23.34-28.36-42.09-43.75-62.4-27.72-36.59-47.3-79.56-80-111.79-54.9-54.1-147.25-43.79-164.36,39.95-5.85,28.62-1.23,58.23,3.4,87.08.24,1.52.49,3.04.73,4.56Z"/>
    <g class="st2">
      <path class="st3" d="M1284.21,1417.98c-7.5-17.15-19.29-31.81-31.11-46.44,4.01,17.75,3.79,36.54-2.42,56.26-21.17,67.2-101.14,80.96-157.92,50.83-57.18-30.34-88.88-108.62-96.58-169.98-.77-6.13-1.02-12.53-1.02-18.99-4.16,26.78.04,54.29,4.35,81.16.24,1.52.49,3.04.73,4.56,3.58,22.28,7.15,44.55,10.73,66.83,4.02,25.03,8.34,50.88,22.13,72.16,14.65,22.59,38.85,37.78,64.54,45.87,25.68,8.09,52.95,9.67,79.88,9.7,18.16.02,36.7-.71,53.72-7.04,49.59-18.45,72.96-99.24,52.99-144.93Z"/>
    </g>
    <path class="st1" d="M1875.21,2029.14c99.94,9.34,167.43,13.17,219.71,67.13,52.28,53.95,39.29,254.91-65.94,379.15-83.95,106.49-307.47,87.88-406.74,26.59-66.99-41.36-19.9-208.46,110.74-215.51-3.33-39.51,29.99-101.12,29.99-101.12l112.24-156.24Z"/>
    <path class="st1" d="M1770.04,2045.65c66.36-88.07,190.93-22.42,114.31,107.95-79.41,135.12-197.06,73.46-174.62,7.06,19.11-56.54,60.31-115.01,60.31-115.01Z"/>
    <path class="st0" d="M1600.15,1829.37c-138.06,293.93,73.87,341.71,165.6,339,74.02-2.19,106.99-118.26,46.13-120.22-90.11-2.9-192.76-24.69-87.12-212.25,63.18-112.16,13.45-300.46-124.61-6.53Z"/>
    <g class="st2">
      <path class="st4" d="M1811.88,2048.14c-90.11-2.9-192.77-24.69-87.12-212.25l-124.61-6.53c-6.11,13.01-11.3,25.37-16.08,37.43,10.44-7.8,22.67-12.24,36.85-10.8,46.63,4.73,36.05,60.71,34.45,92.91-.99,19.97-.43,35.49.14,54.55.73,24.2-5.63,40.77-15.43,55.14-11.24,16.49-33.61,25.38-52.91,18.36-7.4-2.69-13.75-6.14-19.33-10.13,36.57,85.23,140.65,103.22,197.91,101.53,74.02-2.19,106.99-118.26,46.13-120.22Z"/>
    </g>
    <path class="st1" d="M450.4,976.4c60.59-7.58,94.38-99.87,59.87-145.96-34.51-46.08-55.46-113.68-31.07-156.52,24.39-42.84-46.38-73.7-76.41-.86-11.92,28.91,3.75,89.87,3.75,89.87-30.79-43.88-82.97-49.82-85.11,4.09-27.31-28.39-87.68,10.84-58.52,47.19-37.98-18.35-61.28,14.67-23.17,61.28-12.15-13.29-22.5-24.24-51.07-23.33-33.97,1.08-40.01,52.76,6.1,59.29,37.03,5.24,54.63,15.68,89.89,51.16,69.51,69.93,135.4,65.45,165.73,13.79Z"/>
    <g>
      <path class="st3" d="M2701.15,974.77c-9.76-1.33-17.87-1.12-24.85.06,5.59-14.55,3.95-26.65-1.18-34.74-5.72-9.04-15.57-13.83-27.39-14.09,4.03-14.44-1.48-29.02-10.95-39.35-12.58-13.59-32.83-21.47-50.76-16.32-.23-6.02-1.57-11.64-3.95-16.59-6.09-12.24-17.85-19.05-33.66-19.51-1-.05-1.91-.1-2.91-.06-11.38.13-23.61,4.13-35.27,11.26,5.17-20.39,9.55-46.74,4.21-64.68-8.88-30.23-27.04-50.21-49.84-54.68-15.58-3.09-30.78,1.94-39.74,13.12-8.77,10.92-10.09,25.78-3.59,40.59,18.3,41.65-9.15,103.29-45.62,142.61-14.18,15.28-21.65,37.91-21.47,62.32-21.96,16.05-31.64,39.3-27.47,67.29,1.29,8.44,3.76,16.85,7.33,25.23-18.94,22.58-44.88,40.06-73.67,49.21-16.47,5.15-32.79,7.29-47.48,6.34-2.57-44.65,2-88.46,6.43-131.29,7.23-70.17,14.77-142.77-8.59-218.09-10.52-33.69-38.98-60.3-66.49-86.05-11.55-10.71-22.48-20.93-31.42-31.05-22.59-25.76-43.78-53.82-64.3-80.92-18.72-24.83-38.13-50.61-58.8-74.72-43.75-51.08-74.35-57.6-135.39-70.54l-9.54-2.05c-36.36-7.82-67.12-27.18-96.81-45.95-31.98-20.25-65.12-41.1-105.63-47.96-71.64-12.04-147.11-1.52-212.46,29.64l-1.49.74c-6.91,3.37-13.54,6.48-19.73,6.43-6.01.05-12.22-2.92-18.89-6l-1.52-.63c-82.57-38.01-180.01-40.75-267.22-7.55-60.19,22.97-183.62,87.23-219.9,166.34-5.44,11.82-9.28,24.18-12.92,36.28-3.85,12.63-7.48,24.55-12.79,35.56-3.06,6.3-6.35,11.68-10.05,16.4-16.5,21.25-43.57,32.4-69.8,43.13-5.77,2.34-11.53,4.67-17.13,7.2-94.37,41.11-123.12,178.15-131.03,235.17-3.19,22.68-4.32,45.83-5.49,68.16-1.18,24.15-2.39,49.03-6.29,73.13-8.19-1.89-16.51-4.6-24.69-8.21-27.68-12.1-51.65-32.2-68.12-56.64,4.33-7.97,7.67-16.07,9.83-24.34,7.08-27.39-.04-51.43-20.2-69.69,2.73-24.34-2.42-47.64-14.92-64.32-32.16-42.92-52.92-107.09-30.46-146.6,8.02-14.05,8.35-28.96.68-40.74-7.74-12.06-22.33-18.65-38.15-17.2-23.05,2.07-43.19,20.04-55.19,49.17-7.19,17.28-5.58,43.95-2.67,64.76-10.33-7.91-21.35-12.95-32.1-14.52-.18,0-.45-.12-.72-.13-.27-.11-.63-.22-.99-.23-17.09-2.08-30.76,3.39-38.41,15.65-2.98,4.67-4.81,10.03-5.67,16.09-17.29-7-38.25-1.28-52.18,10.92-10.59,9.28-17.51,23.2-15.1,37.99-11.96-1.08-22.08,2.76-28.62,11.15-5.95,7.52-8.93,19.38-4.9,34.42-6.73-1.9-14.77-2.96-24.71-2.66-22.25.75-34.8,17.93-35.68,34.63-.96,18.25,11.27,38.55,40.82,42.74,34.51,4.9,50.33,14.02,84.75,48.59,34.07,34.28,69.93,53.46,102.61,55.17,1.18.06,2.36.12,3.55.09,13.21,24.09,33.94,29.82,48.19,30.56,1.18.06,2.36.12,3.36.08,7.28.02,14.9-1.13,22.46-3.1,24.56,43.8,70.56,86.62,119.37,108.75,9.51,4.32,18.89,7.82,28.04,10.39-.65,3.61-1.29,7.12-1.84,10.74-9.05,57.96.25,118.44,27.45,179.58,9.61,21.53,14.88,44.29,20.45,68.34,5.21,22.12,10.48,44.97,19.45,66.56,15.98,38.89,41.51,55.52,70.99,74.81,7.65,5.04,15.75,10.29,24.09,16.28,34.66,24.76,45.13,52.52,57.28,84.65,8.06,21.54,16.46,43.74,32.83,66.53,40.04,55.8,104.03,92.38,171.37,97.83,19.22,1.55,38.47.74,57.17,0,14.41-.61,28.28-1.25,42-.71-43.96,119.67-97.97,201.95-115.43,222.33-25.9-9.46-48.8-10.3-66.46-1.57-14.67,7.24-31.18,23.58-34.21,60.47-.67.69-1.44,1.47-2.13,2.35-10.4,12.65-28.13,27.75-39.06,36.73-52.74-138.21-120.22-181.07-168.14-192.51-8.36-1.99-16.85-3.25-25.47-3.7-43.66-2.29-88.48,15.66-126.21,51.18-39.74,37.51-58.92,76.83-58.38,120.37.68,65.12,45.45,136.74,136.71,219.08,91.35,82.34,207.66,124.4,290.54,128.74,12.53.66,24.37.46,35.17-.61,31.75-3.16,55.24-13.67,67.87-30.67,8.81-11.83,16.62-23.52,23.58-34.81.39-.43.59-.88.89-1.41,18.91-30.87,31.6-59.33,42.33-83.44,5.36-11.92,10.32-23.13,15.4-33.24,3.66-7.36,5.62-15.09,6.13-23.16,22.61-18.11,35.49-37.92,38.42-59.25,3.36-24.22-6.32-49.67-28.78-76.15,57.32-77.65,101.81-184.82,128.81-260.59,51.49,23.09,105.19,33.64,157.12,36.36,56.1,2.94,110.04-3.33,156.87-12.8-25.53,80.77-22.49,145.92,9.38,194.47,31.52,48.08,83.42,68.73,126.2,77.53-2.66,24.71,10.3,48.42,34.54,61.62-4.78,14.77-8.62,30.77-9.02,45.22-74.52,8.11-121.91,66.43-136.23,122.48-2.3,9.16-3.78,18.19-4.32,26.81-.11.36-.12.63-.14.9-2.16,36.02,10.08,66.43,34.42,81.45,45.76,28.25,113.88,46.75,183.14,50.38,10.26.54,20.62.72,30.82.61,92.45-1.16,165.12-29.48,204.52-79.49,102.86-121.5,124.81-330.07,65.48-391.35-11.4-11.79-23.55-21.26-36.44-29.04-44.49-26.45-98.16-32.36-165.92-38.65-4.2-4.95-9.33-9.5-15.31-13.55-30.96-20.65-80.45-17.78-117,26.54-29.79-4.66-57.3-14.75-69.87-37.16-14.4-25.61-8.93-65.74,16.2-119.76,5.14.91,10.36,2,15.68,3.1,15.22,3.16,30.8,6.26,46.97,6.92,39.9,1.18,80.91-13.6,129.15-46.48,41.82-28.57,71.59-58.14,90.94-90.45,14.46-24.09,23.68-50.55,32.58-76.21,5.69-16.45,11.58-33.35,18.69-49.27,19.88-44.11,50.79-83.36,80.73-121.38,9.56-12.15,19.12-24.3,28.32-36.57,35.03-46.68,75.37-109.38,76.95-181.2.21-9.18-.22-18.4-1.11-27.46,15.41-.56,31.69-3.8,48.74-9.46,50.95-16.9,101.09-54.78,130-95.77,7.32,2.84,14.68,4.77,22.01,5.52,1.09.15,2.17.21,3.36.27,8.9.47,20.52-.75,31.78-7.16,6.76-3.92,13.43-9.67,19.34-18.19,1.17.15,2.45.22,3.63.28,32.69,1.62,70.35-13.61,107.81-44.14,37.75-30.79,54.52-38.2,89.27-39.47,29.91-1.07,44.19-19.98,45.15-38.23.78-16.71-9.9-35.11-31.95-38.18ZM2659.77,949.76c4.87,7.81.86,25.26-19.5,45.49-.1.09-.2.26-.29.35-36.45,42.33-64.02,49.17-76.67,42.13-6.64-3.63-9.68-11.52-8.3-20.46,25.33-9.14,54.76-32.26,80.83-71.22,11.2-3.51,20.23-2.13,23.93,3.71ZM2623.38,898.97c4.65,5.07,14.15,18.4.66,32.53l-.48.43c-.1.08-.19.17-.29.35-.38.34-.58.7-.88,1.05-39.1,59.94-82.92,76.39-101.65,68.95-10.52-4.19-11.95-15.1-11.23-23.71,13.48-5.39,29.01-16.96,45.55-37.21,14.01-17.11,23.45-34.09,27.99-49.42,11.89-9.75,30.15-3.97,40.32,7.03ZM273.7,775.79c11.26-9.88,29.85-13.73,40.75-2.87,2.91,15.72,10.53,33.6,22.75,52.17,14.33,21.87,28.57,35,41.41,41.77-.27,8.63-2.84,19.33-13.74,22.4-19.31,5.45-61.27-15.5-93.88-79.2-.25-.38-.42-.75-.76-1.13-.17-.28-.43-.57-.68-.86-11.84-15.46-1.1-27.73,4.15-32.28ZM232.2,822.49c4.19-5.33,13.32-5.86,24.1-1.29,21.86,41.47,48.62,67.54,72.94,79.38.53,9.04-3.33,16.58-10.4,19.48-13.22,5.68-39.93-4.01-71.58-49.72-18.56-22.82-20.72-40.59-15.06-47.85ZM376.8,1005.57c-26.87-3.05-56.57-20.08-85.71-49.37-37.01-37.26-56.54-48.3-95.04-53.77-19.43-2.75-25.73-14.55-25.24-23.81.42-8.08,6.35-16.96,18.11-17.35,2.56-.14,4.92-.11,7.1,0,19.06,1,26.65,9.04,36.55,19.94,32.52,46.49,59.53,57.37,76.5,58.26,7.99.42,13.72-1.28,16.89-2.67,12.1-5.1,19.79-16.35,21.14-29.93,2.97.7,5.95,1.13,8.76,1.28,4.99.26,9.66-.22,14-1.45,15.15-4.21,24.64-16.73,26.55-34.2.72.13,1.45.17,2.17.21,7.44.39,14-1.36,19.45-4.63,17.1-10.12,21.61-33.64,10.51-54.61-2.31-4.49-7.87-6.15-12.27-3.83-4.41,2.41-6.15,7.87-3.74,12.27,7.37,14.04,3.54,26.22-3.78,30.48-4.32,2.59-10.17,2.93-17.04.29-.45-.12-.89-.32-1.34-.53-10.96-4.49-24.28-16.11-38.01-37.13-16.02-24.33-21.29-43.54-20.98-56.54.02-.45.06-1.09.06-1.09,2.17-8.44,6.14-16.43,14.93-19.15,2.31-.7,4.88-1.02,7.69-.87.54.03.99.14,1.54.17l.73.04c12.75,1.58,29.26,11.37,42.73,30.55,2.54,3.59,7.3,4.84,11.22,3.05,4.01-1.88,6.16-6.32,5.01-10.57-4.07-16.14-12.91-62.76-4.14-84.14,13.34-32.16,32.54-37.25,40.13-37.95,8.96-.8,17.16,2.63,21.2,8.94,3.87,6.03,3.47,13.74-1.15,21.97-27.66,48.43-2.93,120.18,31.69,166.42,8.08,10.8,12.06,25.21,12.05,40.96-.07,6.46-.79,13.25-2.24,20.09-1.45,6.84-3.54,13.65-6.44,20.42-12.05,28.41-33.41,47.04-57.15,50.07-2.75.31-5.29,1.91-6.69,4.38-11.19,18.98-27.27,30.52-46.81,33.5-.55.15-1.1.22-1.65.28-5.59.71-11.41.68-17.3,0ZM450.17,1035.09c-4.79,1.11-9.65,1.68-14.19,1.62-13.29-.06-23.77-4.98-31.36-14.66,20.82-4.73,38.7-17.72,51.29-37.36,12.32-2.27,23.99-7.85,34.43-16.04,6.55-5.12,12.42-11.09,17.69-18.01,5.87-7.7,10.97-16.45,15.12-26.24,1.87-4.36,3.37-8.74,4.69-13.13,9.01,12.21,11.43,26.81,7.2,43.16-.81,3.23-1.89,6.55-3.24,9.75-2.62,6.6-6.24,13.05-10.48,19.29-13.3,19.33-33.4,36.3-53.91,45.6-5.79,2.7-11.53,4.67-17.25,6.01ZM585.28,1144.03c-44.01-19.97-86.65-59.25-109.61-98.68,21.36-9.71,41.69-26.12,56.37-45.56,17.93,24.43,42.65,44.2,71.66,56.82,9.61,4.24,19.28,7.38,28.72,9.52-3.47,15.93-7.95,31.9-12.32,47.42-3.59,12.92-7.29,26.2-10.45,39.6-8.88-2.56-17.17-5.82-24.37-9.11ZM1072.12,2320.68c-8.56,19.12-17.64,39.58-29.71,61.53-13.29-32.03-52-50.53-89.71-68.51-30.04-14.33-61.11-29.15-74.74-49.74-2.77-4.18-8.4-5.33-12.59-2.56-4.19,2.77-5.34,8.41-2.56,12.6,16.41,24.79,49.79,40.7,82.07,56.1,42.56,20.3,82.69,39.54,83.99,75.31-3.76,5.88-7.7,11.93-12.02,18.15-1.99-3.75-4.53-7.43-7.44-10.95-10.6-13.03-30.39-22.89-49.55-32.45-13.22-6.61-25.73-12.82-33.31-19.13-9.25-7.68-17.72-14.49-25.58-20.82-44.12-35.26-68.4-54.74-100.08-131.14-48.82-117.53-119.15-173.74-209.06-167.16-26.32,1.99-45.66,7.98-61.7,20.52,8.15-13.04,19.01-25.77,32.32-38.36,40.51-38.2,89.67-53.92,134.98-43.08,64.36,15.39,119.57,82.08,159.55,192.74,14.71,41.71,51.97,59.26,53.55,59.99,1.09.5,2.21.76,3.33.82,3.61.19,7.13-1.8,8.73-5.29,2.11-4.56.1-9.96-4.45-12.06-.3-.14-28.14-13.25-41.59-43.47,7.72-6.08,22.18-17.98,34.56-30.16,4.32-4.32,8.37-8.66,11.78-12.85,1.46-1.74,3.44-3.1,5.94-3.88,13.91-4.91,42.81,4.61,73.88,24.9,45.87,29.71,85.55,75.03,89.12,111.08.91,8.6-.33,16.64-3.99,23.91-.1.18-.2.35-.3.53-5.18,10.29-10.14,21.5-15.41,33.42ZM1130.63,2209.96c-1.81,13.74-9.42,26.91-22.65,39.59-9.83-40.02-49.43-83.24-95.29-113.04-27.02-17.62-58.97-31.49-82.15-28.61,2.79-15.06,9.24-28.73,22.7-35.31,6.63-3.29,14.62-4.6,23.52-4.14,10.08.53,21.4,3.4,33.61,8.32.36.11.62.31.98.42,7.73,3.59,14.92,7.15,21.46,10.77.53.3.97.6,1.41.8,14.57,8.5,29.92,19.59,45.51,33.06,7.84,6.78,14.86,13.43,20.89,20.03.51.66.94,1.14,1.46,1.62,21.68,23.98,31.35,46.25,28.56,66.49ZM1107.84,2122.02c-10.42-11.38-31.85-31.44-67.88-50.8-1.06-.6-2.12-1.2-3.27-1.81-2.65-1.5-5.22-2.82-7.8-4.05,23.1-29.19,75.06-112.12,117.03-228.53,6.79.72,13.55,1.89,20.3,3.52,19.95,4.87,38.32,13.93,57.75,23.6l8.26,3.98c-26.15,73.45-69.12,177.79-124.37,254.09ZM2021.82,2469.77c-78.5,99.66-295.07,86.12-394.8,24.54-17.26-10.73-26.58-32.67-26-59.55,46.85-18.59,101.15.19,158.55,20.16,38.62,13.43,77.86,27.08,115.58,29.06,40.01,2.1,78.29-8.96,112.2-47.38,76.81-87.02,110.1-219.97,103.28-306.32-.74-9.34-2.14-19.84-4.57-30.01.76.75,1.6,1.49,2.35,2.33,49.05,50.63,35.11,247.16-66.58,367.17ZM2054.68,2075.95c9.16,7.96,15.64,28.18,17.82,55.76,6.51,82.54-25.34,209.64-98.79,292.86-57.79,65.47-130.84,40.08-208.17,13.18-54.89-19.09-111.47-38.66-162.4-22.98.54-3.23,1.26-6.47,2.06-9.71,13.07-51.29,57.19-104.69,126.34-109.34,38.38,15.3,71.31,21.83,98.79,23.27,67.02,3.51,101.76-22.96,103.77-24.55,3.93-3.1,4.6-8.77,1.52-12.72-3.08-3.95-8.79-4.65-12.74-1.59-.63.47-62.06,46.17-180.98.08-.08-12.38,3.32-26.76,7.67-40.36,6.01,1.68,12.24,2.73,18.77,3.08,39.31,2.06,86.7-21.67,123.78-84.72,21.98-37.35,32.81-82.48,18.76-116.62,60.2,5.79,106.17,12.12,143.77,34.36ZM1870.17,2021.71c1.24.61,2.39,1.31,3.53,2.1,5.81,3.85,11.17,9.14,15.38,15.74,14.41,22.05,17.01,59.15-12.57,109.48-37.77,64.2-85.81,82.8-120.65,73.69-3.5-.91-6.99-2.19-10.19-3.63-2.31-1.03-4.53-2.24-6.55-3.53-15.52-9.55-23.99-25.02-22.97-41.17,10.57,1.56,20.18,2.33,28.25,2.76,4.9.26,9.26.39,12.91.4,3.64.01,6.56-.02,8.65-.09,5.29-.18,10.42-.82,15.31-2.02,44.58-10.04,71.35-57.07,71.41-91.2-.05-2.55-.19-5.11-.52-7.49-.84-8.24-3.38-15.29-7.27-21.04-6.76-9.91-17.65-15.85-31.63-16.59l-1.09-.06c-7.54-.21-15.26-.62-23.14-1.3,26.94-25.9,59.11-28.4,81.13-16.05ZM2141.63,1457.01c-9.11,12.27-18.66,24.24-28.12,36.3-30.62,38.81-62.22,79.03-82.93,125.18-7.52,16.63-13.52,33.88-19.31,50.69-9.01,25.93-17.57,50.42-31.04,72.83-17.96,30.01-45.9,57.76-85.55,84.81-44.93,30.6-82.52,44.37-118.33,43.32-14.54-.49-28.77-3.42-43.89-6.58-3.69-.74-7.38-1.57-11.07-2.31,3.45-6.74,7.27-13.73,11.29-20.89,2.51-4.42.98-9.96-3.45-12.38-4.33-2.5-9.88-.88-12.38,3.45-5.22,9.19-9.87,18.05-14.23,26.65-2.95,5.94-5.71,11.72-8.29,17.41-26.06,57.8-30.42,101.08-13.26,131.47,14.66,25.98,42.95,38.48,74.03,44.57,6.49,1.34,13.17,2.33,19.78,3.04,12.39,1.56,24.83,2.21,36.73,2.65l.73.04c12.35.65,18.09,7.32,20.5,15.18,1.26,3.8,1.59,7.91,1.66,11.74-.02,7.37-1.64,15.57-4.8,23.87-5.08,13.57-14.17,27.2-26.51,36.93-9.12,7.26-20.04,12.42-32.41,13.87-1.74.27-3.48.36-5.3.45-13.86.37-29.02-.34-44.65-2.52-6.05-.86-12.1-1.91-18.22-3.23-44.48-9.25-89.69-30.64-115.41-69.77-30.01-45.72-31.32-109.15-3.93-189,2.26-6.71,4.72-13.59,7.35-20.46,5.25-13.29,11.06-27,17.72-41.12,2.15-4.53.24-9.91-4.28-12.06-4.53-2.15-10-.16-12.15,4.37-8.71,18.57-16.21,36.56-22.48,53.8-89.04,19.36-207.27,27.82-314.59-20.77-5.78-2.58-11.19-5.23-16.61-7.88-2.04-1.02-4.17-2.04-6.21-3.06-19.43-9.67-39.57-19.55-61.5-24.98-6.11-1.5-12.24-2.65-18.39-3.42-5.96-.86-12.04-1.36-18.12-1.68l-.64-.03c-16.43-.86-32.86-.08-49,.62-18.25.77-37.04,1.52-54.98.03-62.09-4.99-121.22-38.76-158.11-90.3-14.93-20.81-22.93-41.89-30.59-62.32-12.07-31.95-24.53-65.1-63.67-93-8.6-6.18-16.78-11.53-24.7-16.77-28.08-18.31-50.34-32.86-64.24-66.45-8.31-20.37-13.52-42.4-18.41-63.77-5.57-23.87-11.29-48.47-21.64-71.68-25.82-57.88-34.58-114.87-26.07-169.4.53-3.16,1.06-6.41,1.68-9.56,1.13-5.95,2.35-11.89,3.76-17.83,3.14-13.03,6.73-25.95,10.31-38.6,4.49-16.15,9.09-32.75,12.61-49.49.95-4.32,1.81-8.55,2.59-12.88.27-1.72.54-3.43.82-5.15,3.95-25.01,5.19-50.43,6.39-74.94,1.15-21.97,2.25-44.67,5.31-66.63,7.56-53.95,34.38-183.53,120.27-220.99,5.59-2.44,11.17-4.78,16.85-7.04,28.38-11.71,57.77-23.73,77.2-48.75,4.49-5.86,8.47-12.3,12.05-19.76,5.92-12.25,9.98-25.42,13.83-38.14,3.63-12.01,7.14-23.29,12.06-33.96,31.35-68.45,142.7-131.33,209.85-156.94,81.46-31.05,176.17-28.45,253.14,6.99l1.42.71c7.73,3.59,16.53,7.6,26.45,7.67,10.47,0,19.61-4.34,27.65-8.2l1.49-.74c61.99-29.52,133.61-39.51,201.73-28.11,36.81,6.21,66.95,25.17,98.94,45.33,31.01,19.65,63.08,39.9,102.6,48.34l9.63,2.05c60.49,12.91,85.52,18.23,125.32,64.64,20.33,23.73,39.56,49.23,58.12,73.87,20.68,27.39,42.05,55.64,65.16,81.97,9.54,10.79,20.73,21.29,32.62,32.39,25.87,24.02,52.5,48.99,61.54,78.05,22.27,71.8,15.27,139.34,7.88,210.87-4.31,42.19-8.77,85.56-6.63,130,.22,6.29.61,12.69,1.28,19,.84,9.97,2.14,19.96,3.79,30.06,1.59,9.64,3.54,19.3,5.49,29.05,2.15,11.04,4.32,21.89,6.03,32.63,1.04,6.24,1.9,12.39,2.58,18.52.98,9.15,1.41,18.28,1.2,27.46-1.4,66.65-39.93,126.16-73.3,170.65ZM2275.01,1232.61c-12.88,4.33-28.74,8.14-45.33,8.64-1.89-12.57-4.34-24.9-6.7-37.13-1.96-9.48-3.83-18.95-5.42-28.5-1.39-8.17-2.51-16.43-3.26-24.57,16.16.76,33.67-1.6,51.54-7.31,30.08-9.53,56.74-26.61,77.21-49.02,12.56,20.87,31.07,39.32,51.2,51.2-26.96,36.82-73.47,71.43-119.24,86.69ZM2434.62,1141.49c-4.53-.42-9.21-1.48-13.86-3.09-5.54-1.93-11.05-4.49-16.53-7.69-19.43-11.4-37.63-30.46-48.84-51.08-3.56-6.65-6.49-13.45-8.41-20.19-1-3.42-1.74-6.74-2.29-10.13-2.49-16.7,1.53-30.96,11.68-42.17.86,4.5,1.98,9.02,3.39,13.56,3.19,10.36,7.43,19.78,12.63,28.15,4.35,7.24,9.48,13.61,15.11,19.09,9.61,9.42,20.63,16.19,32.74,19.74,10.56,20.85,26.99,35.64,47.2,42.53-8.66,8.92-19.6,12.72-32.82,11.3ZM2687.35,1033.03c-38.85,1.42-59.44,10.36-100.23,43.54-31.95,26.09-63.35,39.92-90.4,40.14-5.92.05-11.72-.52-17.2-1.81-.54-.12-1.08-.24-1.62-.45-19.04-5-33.91-18.16-42.97-38.21-1.23-2.61-3.5-4.46-6.29-5.06-23.2-5.49-42.5-26.26-51.51-55.77-2.18-7.03-3.63-14.12-4.27-21.07-.73-6.96-.74-13.69-.13-20.12,1.64-15.66,7.1-29.58,16.27-39.47,39.27-42.36,71.27-111.14,48.92-162.19-3.73-8.66-3.42-16.38,1.06-21.97,3.99-4.98,10.68-7.54,18.03-7.16,1.36.07,2.72.23,4.07.49,7.48,1.48,26.04,8.56,35.85,41.93,6.57,22.19-7.1,67.62-12.92,83.25-1.49,4.11.09,8.74,3.88,11.04,3.8,2.2,8.66,1.46,11.48-1.86,15.4-17.76,32.94-25.76,45.78-25.91l.73.04c.64-.06,1.37-.02,2,.01,2.63.23,4.87.8,7.01,1.64,8.64,3.64,11.85,11.91,12.85,20.61l-.07,1.27c-1.04,12.87-8.29,31.42-26.67,53.85-15.56,19.03-29.75,29.21-41.04,32.8-.55.06-1.19.21-1.75.45-7.3,1.98-13.16,1.04-17.28-2-6.84-5-9.28-17.51-.49-30.7,2.77-4.13,1.69-9.74-2.52-12.6-4.13-2.77-9.74-1.69-12.6,2.52-13.23,19.7-11.2,43.56,4.83,55.42,5.08,3.82,11.42,6.24,18.77,6.63.72.04,1.45.07,2.18.02.17,17.58,8.29,31.02,22.92,36.79,4.1,1.67,8.78,2.64,13.68,2.9,2.81.15,5.73.03,8.84-.26-.07,13.56,6.49,25.55,17.99,31.89,3.01,1.7,8.53,4,16.43,4.41,17.07.89,44.98-7.11,81.99-49.86,12.41-10.91,21.37-18.72,45.68-15.36,11.75,1.62,16.63,11.07,16.29,19.15-.49,9.26-7.98,20.34-27.59,21.04Z"/>
      <path class="st3" d="M627.43,1998.19c-5,.26-8.85,4.51-8.61,9.52.25,5,4.59,8.87,9.51,8.64,5.38-.28,131.67-4.13,178.22,164.41,1.07,3.87,4.48,6.46,8.28,6.66.95.05,1.92-.05,2.9-.32,4.83-1.34,7.68-6.35,6.34-11.19-50.55-183.08-195.19-177.78-196.64-177.72Z"/>
      <path class="st3" d="M979.73,1634.77c-14.35,1.16-26.55,4.71-36.32,10.48-9.68,5.77-16.83,13.77-20.99,23.66-15.11,36.44,15.53,75.37,53.64,94.93,15.87,8.11,33.52,13.41,50.86,14.32,27.87,1.46,54.78-8.32,71.59-35.48,11.84-19.13,12.23-38.87,1.17-57.1-21.54-35.36-79.1-53.85-119.95-50.8ZM1083.08,1733.13c-21.18,34.21-64.85,31.92-98.7,14.49-30.76-15.72-56.06-45.45-45.12-71.73,7.39-17.73,29.37-22.04,41.8-22.93,39.48-2.94,87.6,16.7,103.11,42.09,7.46,12.32,7.17,24.77-1.09,38.08Z"/>
      <path class="st3" d="M1367.52,1637.9c-60.33,13.59-102.78,41.94-113.31,75.98-6.33,20.06-1.59,40.7,12,59.34,3.31,4.54,7.18,8.93,11.5,13.26,17.74,17.59,43.98,32.71,76.4,42.87,19.44,6.03,39.9,9.83,60.23,10.89,64.18,3.36,126.8-20.84,148.3-88.81,13.22-42.09-.14-68.46-13.66-83.19-37.38-40.65-118-44.51-181.46-30.36ZM1545.28,1745.98c-24.55,77.63-113.51,88.63-185.69,66-48.27-15.18-91.73-47.41-89.89-82.45.18-3.45.73-6.88,1.82-10.28,8.53-27.32,46.86-51.7,100-63.57,26.25-5.91,52.31-8.09,76.09-6.84,38.49,2.02,70.86,13.09,88,31.65,14.98,16.35,18.2,38.37,9.67,65.5Z"/>
      <path class="st3" d="M843.77,1149.66c-16.35-14.51-33.79-22.25-51.4-23.18-12.98-.68-26.16,2.36-39.16,9.05-19.84,10.25-32.98,26.67-38,47.62-9.29,38.29,9.42,82.51,28.25,108.71,7.64,10.6,7.4,34.25,7.09,59.27-.52,39.39-1.12,83.96,26.56,111.44,14.36,14.32,34.16,22,60.49,23.38,3.9.2,7.91.23,12.1.18,30.16-.51,52.48-18.28,64.68-51.41,29.5-80.01-7.46-229.23-70.62-285.07ZM897.34,1428.46c-9.55,25.81-25.63,39.07-47.95,39.45-27.24.48-46.68-5.45-59.49-18.23-22.14-22.1-21.66-62.58-21.24-98.33.44-29.29.77-54.58-10.44-70.09-17.8-24.96-32.62-63.61-25.39-93.81,3.84-15.91,13.47-27.88,28.73-35.81,23.86-12.31,47.5-8.34,70.12,11.69,57.59,50.9,92.61,192.1,65.66,265.14Z"/>
      <path class="st3" d="M2094.83,990.23c4.27.22,8.66-.27,13.09-1.41,46.81-12.47,67.15-88.05,56.19-148.16-8.21-44.85-31.94-71.49-64.34-73.19-3.27-.17-6.64-.08-10.12.29-22.23,2.2-39.31,17.06-49.31,42.84-19.16,49.42-8.28,128.46,22.43,162.57,9.54,10.7,20.44,16.45,32.06,17.06ZM2057.29,817.22c7.47-19.27,18.95-29.86,34.14-31.34,39.17-3.95,51.37,39.29,54.76,58.03,9.34,51.1-7.36,117.86-42.9,127.28-9.79,2.67-18.62-.7-27.05-10.16-25.8-28.75-35.37-101.44-18.95-143.82Z"/>
      <path class="st3" d="M2105.29,1184.85l-1.27-.07c-32.5-1.7-62.36,15.75-84.13,49.11-31.38,48.24-39.22,117.83-17.87,158.63,11.18,21.25,29.13,33.02,52.09,34.23l1.82.09c66.09,1.74,109.01-70.38,112.36-141.21,2.79-58.48-21.99-98.01-62.99-100.79ZM2056.42,1408.67c-17.27-.45-29.94-8.76-38.3-24.67-18.29-34.82-10.72-97.69,16.99-140.11,12.78-19.72,34.92-42.68,67.87-40.95l1.09.06c36.74,2.47,47.76,45.65,46.05,81.79-2.89,62.02-38.71,125.41-93.7,123.89Z"/>
      <path class="st3" d="M990.11,721.32l3.09.16c25.42,1.33,52.5-8.35,80.52-28.82,10.79-7.9,21-16.74,30.91-25.23,10.87-9.44,22.12-19.14,33.93-27.35,10.01-6.94,20.9-13.2,31.41-19.2,14.73-8.42,30.03-17.09,43.71-28.2,29.47-23.85,44.32-55.39,39.74-84.3-6.53-40.48-48.25-64.06-84.66-65.97-.36-.02-.63-.03-1,.04-36.88-1.57-67.87,13.19-97.84,27.46-11.02,5.25-22.4,10.66-33.84,15.16-55.39,21.67-77.55,78.04-97.09,127.72l-3.46,8.74c-4.51,11.41-9.66,24.44-9.39,38.47.65,34.44,33.7,58.66,63.96,61.34ZM952.4,628.22l3.56-8.82c19.02-48.52,38.76-98.64,86.8-117.42,11.99-4.65,23.66-10.23,34.96-15.65,29.31-13.94,56.95-27.14,89.28-25.72,30.16,1.13,63.64,20.54,68.44,50.65,4.26,26.35-14.38,52.04-33.2,67.26-12.55,10.17-26.53,18.09-41.27,26.6-10.88,6.17-22.15,12.67-32.73,20.04-12.66,8.71-24.29,18.75-35.54,28.54-9.53,8.24-19.45,16.82-29.77,24.29-25.46,18.69-49.58,27.17-71.23,25.21-22.56-2-46.93-19.94-47.42-43.54-.18-10.48,4.02-21.09,8.11-31.43Z"/>
      <path class="st3" d="M1885.39,1424.01c-8.89-17.94-15.98-32.06-19.61-51.37-4.22-21.89-14.64-35.08-34.82-44.24-9.96-4.53-19.85-6.77-29.66-7.29-33.95-1.78-65.92,17.75-87.14,40.4-3.66,3.81-7.06,7.82-10.09,11.94-33.24,43.68-50.89,97.28-49.87,150.77,1.52,73.54,39.31,146.06,98.75,189.42,15.34,11.18,32.15,17.07,48.58,17.93,24.6,1.29,48.34-8.75,64.8-29.37,24.85-31.19,38.77-84.9,42.29-164.18,1.85-40.41-4.49-75.79-18.96-105.31l-4.28-8.69ZM1852.1,1690.88c-21.53,27-57.84,30.28-88.44,8.02-54.98-40.02-89.87-107.12-91.23-175-.96-49.48,15.39-99.05,46.09-139.49,2.74-3.59,5.74-7.07,8.83-10.46,23.14-24.64,60.53-45.16,96.1-29.01,14.76,6.69,21.41,15.14,24.4,31.14,4.23,21.7,12.14,37.59,21.28,56l4.28,8.6c12.98,26.71,18.74,59.24,17.06,96.56-3.34,74.19-16.25,125.86-38.37,153.64Z"/>
      <path class="st3" d="M1374.68,568.98c2.35.21,4.8.43,7.16.56,24.06,1.26,46.2-4.5,63.03-16.45,22.32-16.03,33.76-43.11,28.48-67.51-4.56-20.72-18.14-35.91-39.3-43.84-30.62-11.43-75.29-5.04-101.62,14.52-20.37,15.23-28.6,36.82-22.5,59.44,7.56,27.61,34.79,49.98,64.75,53.28ZM1343.32,470.85c15.62-11.56,39.79-17.67,61.49-16.53,8.17.43,16.01,1.93,22.89,4.48,15.27,5.72,24.65,16.04,27.88,30.68,3.74,17.13-5.04,37.15-21.31,48.77-13.34,9.59-31.42,14.19-51.39,13.14-2.09-.11-4.17-.31-6.26-.51-22.45-2.45-43.58-19.58-49.15-39.99-2.9-10.71-2.53-26.35,15.84-40.04Z"/>
      <path class="st3" d="M761.47,927.61l-.03,4c-.16,22.11-.35,48.32,4.83,72.8,5.17,24.58,15.81,47.34,37.05,62.48,11.23,8.05,25.38,12.53,41.26,13.36,8.9.47,18.31-.22,28.15-2.08,56.65-11.05,89.06-42.3,99.13-95.66,10.07-53.27-2.48-108.91-33.53-148.76-23.03-29.61-58.98-47.06-93.74-45.42-29.66,1.36-55.1,16.23-71.47,41.86-14.86,23.07-13.53,51.45-12.3,76.55.35,7.12.71,14.15.63,20.88ZM788.37,840c13.18-20.52,33.47-32.38,57.1-33.51,28.92-1.31,59.01,13.38,78.54,38.43,27.89,35.78,39.09,85.98,30.01,134.2-8.72,46.51-34.88,71.54-84.81,81.21-12.87,2.42-37.2,4.7-55.37-8.27-34.83-24.86-34.49-80.09-34.2-120.31l.03-4c.1-7.1-.34-14.4-.67-21.88-1.14-23.45-2.33-47.64,9.37-65.87Z"/>
      <path class="st3" d="M1809.49,763.91c9.6,2.6,20.76,5,32.57,5.62,9.71.51,19.86-.23,29.85-3.26,11.19-3.42,21.8-9.6,31.73-18.36,25.4-22.61,38.5-50.32,38.81-82.17.62-58.68-43.21-120.24-84.36-158.35-33.08-30.59-94.06-42.89-145.02-29.18-19.48,5.26-35.86,13.87-48.75,25.21-12.79,11.34-22.09,25.42-27.04,41.82-4.95,16.22-5.21,35.14-.58,56.22,16.44,75.32,84.28,139.14,172.81,162.44ZM1654.64,550.52c8.13-26.52,30.53-45.92,63.13-54.68,44.6-12.04,99.65-1.33,127.95,24.91,38.38,35.42,79.1,92.08,78.52,144.75-.21,26.57-11.26,49.75-32.73,68.74-7.93,7.05-16.28,11.98-24.89,14.63-17.67,5.36-37.31,1.5-52.48-2.48-81.97-21.68-144.72-80.13-159.69-148.83-3.88-17.95-3.87-33.79.19-47.05Z"/>
      <path class="st3" d="M1794.96,990.8c13.66-50.53,10.97-103.29-7.78-148.51-13-31.54-33.1-57.99-58.25-76.51-16.11-12.13-33.78-20.7-52.72-25.7-49.55-13.34-100.99-1.02-143.19,29.63-12.06-47.78-41.16-88.18-84.61-110.3-43.09-21.92-93.57-22.75-142.15-2.35-48.03,20.24-88.56,58.89-113.94,108.9-25.47,50-32.93,105.5-20.93,156.2,12.05,51.33,42.44,91.61,85.53,113.62,19.86,10.05,41.23,15.63,63.2,16.79,1.45.08,2.99.16,4.45.14,1.19,10.35,4.11,18.88,8.39,24.02,3.16,3.9,8.96,4.38,12.77,1.22,3.81-3.26,4.38-8.96,1.13-12.87-1.97-2.29-3.46-6.92-4.33-12.97-.73-5.14-.95-11.34-.6-18.15.91-13.88,4.5-30.26,12.36-44.68,2.11-3.8,4.3-7.33,6.83-10.47,2.35-3.15,5.05-6.02,7.82-8.51,4.49-4.13,9.48-7.24,14.89-9.6,6.98-3,14.71-4.6,23.19-4.7,3.55-.09,7.28.11,11.16.59,3.08.34,5.96.86,8.74,1.64,4.41.96,8.43,2.35,12.07,4.09,7.29,3.39,13.51,7.99,18.67,13.63,4.14,4.4,7.69,9.51,10.77,15.13,11.71,21.37,15.97,49.54,18.76,76.17.55,5.03,1.02,10.07,1.49,14.91.65,6.68,1.23,12.99,1.92,18.94,2.89,24.82,7.16,42.16,21.11,46.98.89.32,1.71.45,2.52.5,2.36.12,4.58-.58,6.39-2.12,4.1-3.52,9.73-6.77,16.54-9.87,7.36-3.26,16.26-6.25,26.13-8.74,29.33-7.38,67.65-10.74,104.57-6.53,9.87,1.06,19.61,2.67,29.14,4.99,20.05,4.69,38.87,12.14,54.32,22.96,4.13,2.86,9.83,1.79,12.68-2.25,2.85-4.13,1.88-9.82-2.25-12.68-13.52-9.45-28.9-16.53-45.28-21.76.76-.51,1.42-1.11,2.18-1.71,35.09-28.56,62.85-70.16,76.3-120.07ZM1355.87,682.87c-18.63,7.83-35.68,19.4-50.47,33.87,21.97.05,43.38,11.56,55.09,33.24,15.31,28.33,3.99,62.83-17.51,84.22-25.44,25.32-70.36,27.31-91.51-3.14-1.41,16.98-.41,33.92,3.42,50.22,9.09,38.52,31.98,68.85,64.43,85.39,7.18,3.65,14.59,6.5,22.13,8.53-1.09,1.76-2.1,3.53-3.11,5.39-9.16,16.81-13.65,36.42-14.47,53.86-20.54-.62-40.4-5.58-58.66-14.91-38.3-19.48-65.36-55.58-76.14-101.57-11.03-46.55-4.08-97.61,19.37-143.81,23.54-46.19,60.73-81.83,104.85-100.37,23.64-9.96,47.81-14.24,71.05-13.02,19.52,1.02,38.38,5.93,55.84,14.85.44.21.8.41,1.24.7-27.17-7.8-56.88-5.53-85.54,6.53ZM1693.94,1106.66c-55.11-11.45-116.64-4.48-155.55,10.05-7.42,2.71-14.04,5.73-19.59,9.08-1.31.66-2.54,1.51-3.76,2.26-.91-1.69-1.7-4-2.47-6.78-1.98-7.39-3.34-17.83-4.36-27.9-.58-4.49-.99-8.97-1.42-12.91-3.07-31.75-7.08-73.28-25.62-103.29-3.27-5.36-7.02-10.29-11.33-14.79-3.71-3.93-7.89-7.51-12.55-10.58-.08-.28-.06-.64-.04-.91.21-3.99.5-7.89.9-11.88.42-4.53.93-9.05,1.71-13.56,1.23-7.86,2.92-15.78,5.07-23.68,9.38-34.92,26.37-65.43,48.03-89.6,2.51-2.69,5.02-5.38,7.6-7.88.49-.61,1.07-1.22,1.73-1.73,2.78-2.77,5.65-5.44,8.61-8.01,2.01-1.81,4.01-3.52,6.18-5.05,30.97-24.77,67.91-38.22,105.22-36.45-10.87,2.43-21.72,6.33-32.38,11.68-24.87,12.47-46.35,31.73-62.61,55.73,4.2-.9,8.52-1.24,12.91-.89,12.8,1.02,23.34,6.61,32.32,15.56,3.64,3.63,6.6,8.07,8.79,12.72,4.32,9.19,3.91,9.68,4.59,17.94.18,2.18.56,4.86.52,7.25-.09,4.82-1.52,9.71-2.49,14.38-.23,1.09-.49,2.15-.87,3.19-1.71,4.69-4.13,9.29-6.53,13.65-.65,1.18-1.38,2.32-2.19,3.4-3.17,4.21-6.71,8.29-10.39,12.07-1.16,1.2-2.41,2.31-3.73,3.34-3.72,2.93-7.45,6.18-11.71,8.15-3.89,1.41-7.79,2.82-11.68,4.22-4.27.35-8.54.69-12.8,1.04-.41,0-.81,0-1.22,0-8.51-.47-16.34-3.04-23.47-7.69-1.44-.88-2.58-2.02-3.86-3.05,1.09,54.99,28.95,104.23,76.53,124.59,13,5.51,26.58,8.67,40.47,9.4,22.06,1.16,44.71-3.75,66.4-14.63,17.48-8.64,33.31-20.74,46.83-35.5,13.52-14.77,24.71-32.11,33.01-51.43,2.28-5.25,4.29-10.61,6.03-16.07-.95,14.61-3.36,29.41-7.31,43.95-14.12,52.33-45.11,94.76-83.51,120.6Z"/>
      <path class="st3" d="M1588.24,1179.86c-5.02.19-8.96,4.26-8.86,9.28.1,5.01,4.26,9.05,9.27,8.95.64.03,7.56-.06,15.77,3.01-5.85,3.97-11.78,7.58-17.86,10.72-.37.16-.75.42-1.12.58-11.31,5.6-22.67,10.46-34.16,14.41-99.9,32.08-202.57-13.17-203.81-13.78-4.53-2.06-9.92.03-11.98,4.56-2.06,4.53-.06,9.92,4.47,11.98,1.69.72,13.25,5.88,31.53,11.48,36.12,42.04,4.82,109.48,4.51,110.2-1.13,2.4-1.18,5.22-.04,7.64,1.06,2.42,3.14,4.26,5.74,5.03,23.23,6.59,45.6,10.49,66.66,11.6,52.2,2.74,96.09-11.44,125.16-41.59,28.11-29.11,38.24-69.54,27.86-109.5,6.48-3.76,12.89-7.88,19.23-12.56,3.18,3.54,5.95,7.96,8.03,13.44,1.27,3.53,4.52,5.79,8.06,5.98,1.18.06,2.46-.14,3.67-.54,4.64-1.76,7.1-7,5.35-11.73-11.8-31.84-42.81-39.47-57.48-39.15ZM1560.44,1321.31c-34.36,35.52-93.69,45.52-163.94,27.73,1.91-5.18,4.18-12.06,6.15-20.06,9.73,2.18,25.98,5.18,45.27,6.19,41.07,2.15,95.44-4.81,127.44-48.47,2.97-4.05,2.09-9.74-1.96-12.71-4.03-2.96-9.74-2.08-12.7,1.96-40.37,55.08-127.95,40.95-154.66,35.1,2.44-18.83,1.77-40.71-7.45-61.04,51,13.32,101.4,12.14,150.55-3.4,1.66-.46,3.33-1.01,5-1.56,10.27-3.1,20.49-7.12,30.67-11.96,7.04,32.41-1.76,64.81-24.38,88.2Z"/>
      <path class="st3" d="M1292.5,1414.32c-8.04-18.44-20.61-33.94-32.75-48.96-4.01-5.04-8.12-10.07-12.03-15.29-10.3-13.56-19.63-28.43-28.7-42.83-15.3-24.2-31.1-49.15-52.13-69.91-31.33-30.86-76.1-43.31-114.12-31.74-33.85,10.24-57.71,38.12-65.53,76.3-6.25,30.62-1.18,62.38,3.27,90.38l11.46,71.42c3.99,24.51,8.45,52.42,23.53,75.6,14.57,22.52,39.22,40.11,69.4,49.61,19.25,6.11,39.14,8.61,57.75,9.58,8.62.45,17,.53,24.91.58,17.57.01,37.9-.56,56.84-7.67,22.74-8.46,41.93-28.84,54.08-57.42,14.23-33.57,15.83-72.72,4.04-99.64ZM1271.71,1506.89c-10.18,23.95-25.62,40.8-43.63,47.5-16.15,5.98-34.57,6.47-50.58,6.45-23.66-.06-51.28-1.14-77.16-9.23-26.15-8.29-47.3-23.23-59.6-42.17-12.97-20.07-17.17-45.87-20.8-68.63l-10.7-66.83c0-.09-.76-4.59-.76-4.59-4.46-27.72-9.05-56.46-3.43-83.83,6.5-31.97,25.32-54.2,52.98-62.58,9.25-2.79,18.96-3.92,28.76-3.41,23.87,1.25,48.43,12.1,67.3,30.75,19.57,19.23,34.1,42.29,49.48,66.68,9.33,14.69,18.92,29.85,29.64,44.06,4,5.31,8.19,10.53,12.47,15.67,11.88,14.73,23.07,28.7,30.23,44.91,9.83,22.54,8.17,56.05-4.2,85.25Z"/>
    </g>
  </g>
  <path class="st3" d="M1193.84,1098.56c-.26,5.01-4.54,8.86-9.55,8.6-5.01-.26-8.86-4.54-8.6-9.55.26-5.01,4.54-8.86,9.55-8.6,5.01.26,8.86,4.54,8.6,9.55Z"/>
  <path class="st3" d="M1147.12,1120.23c-.26,5.01-4.54,8.86-9.55,8.6-5.01-.26-8.86-4.54-8.6-9.55.26-5.01,4.54-8.86,9.55-8.6,5.01.26,8.86,4.54,8.6,9.55Z"/>
  <path class="st3" d="M1111.4,1072.18c-.26,5.01-4.54,8.86-9.55,8.6-5.01-.26-8.86-4.54-8.6-9.55.26-5.01,4.54-8.87,9.55-8.6,5.01.26,8.87,4.54,8.6,9.55Z"/>
  <path class="st3" d="M1221.07,1153.52c-.26,5.01-4.54,8.87-9.55,8.6-5.01-.26-8.86-4.54-8.6-9.55.26-5.01,4.54-8.86,9.55-8.6,5.01.26,8.86,4.54,8.6,9.55Z"/>
  <path class="st3" d="M1262.34,1093.05c-.26,5.01-4.54,8.87-9.55,8.6-5.01-.26-8.86-4.54-8.6-9.55.26-5.01,4.54-8.86,9.55-8.6s8.86,4.54,8.6,9.55Z"/>
  <path class="st3" d="M1728.77,1214.99c-.26,5.01-4.54,8.86-9.55,8.6-5.01-.26-8.86-4.54-8.6-9.55.26-5.01,4.54-8.86,9.55-8.6,5.01.26,8.87,4.54,8.6,9.55Z"/>
  <path class="st3" d="M1795.67,1256.73c-.26,5.01-4.54,8.86-9.55,8.6-5.01-.26-8.86-4.54-8.6-9.55.26-5.01,4.54-8.86,9.55-8.6,5.01.26,8.87,4.54,8.6,9.55Z"/>
  <path class="st3" d="M1704.34,1251.94c-.26,5.01-4.54,8.87-9.55,8.6-5.01-.26-8.86-4.54-8.6-9.55.26-5.01,4.54-8.86,9.55-8.6,5.01.26,8.86,4.54,8.6,9.55Z"/>
  <path class="st3" d="M1169.77,1035.45c-.26,5.01-4.54,8.86-9.55,8.6-5.01-.26-8.86-4.54-8.6-9.55.26-5.01,4.54-8.86,9.55-8.6,5.01.26,8.87,4.54,8.6,9.55Z"/>
  <path class="st3" d="M1690.3,1172.2c-.26,5.01-4.54,8.86-9.55,8.6-5.01-.26-8.87-4.54-8.6-9.55.26-5.01,4.54-8.86,9.55-8.6,5.01.26,8.86,4.54,8.6,9.55Z"/>
  <path class="st3" d="M1125.03,985.68c-.26,5.01-4.54,8.86-9.55,8.6-5.01-.26-8.86-4.54-8.6-9.55.26-5.01,4.54-8.86,9.55-8.6,5.01.26,8.87,4.54,8.6,9.55Z"/>
  <path class="st3" d="M1766.76,1195.85c-.26,5.01-4.54,8.86-9.55,8.6-5.01-.26-8.86-4.54-8.6-9.55.26-5.01,4.54-8.86,9.55-8.6,5.01.26,8.86,4.54,8.6,9.55Z"/>
  <path class="st3" d="M1836.26,1208.6c-.26,5.01-4.54,8.86-9.55,8.6-5.01-.26-8.86-4.54-8.6-9.55.26-5.01,4.54-8.86,9.55-8.6,5.01.26,8.86,4.54,8.6,9.55Z"/>
  <path class="st3" d="M1784.81,1846.95c-3.84-.2-7.27-2.84-8.31-6.75-1.28-4.85,1.61-9.83,6.46-11.12,59.12-15.69,107.5-46.38,136.24-86.4,25.57-35.62,37.35-79.21,48.74-121.38,1.3-4.84,6.26-7.73,11.14-6.4,4.85,1.31,7.71,6.3,6.4,11.15-11.25,41.69-24.01,88.94-51.52,127.24-31.19,43.44-83.17,76.6-146.35,93.37-.94.25-1.88.35-2.81.3Z"/>
  <path class="st3" d="M1265.56,1832.08c-1.3-.07-2.61-.42-3.84-1.08-16.87-9.11-34.26-17.85-51.7-25.97-14.4-6.7-29.79-13.46-45.74-15.94-12.41-1.93-25.32-1.23-35.2-.41-13.33,1.11-26.72,2.98-39.79,5.55-4.91.97-9.71-2.23-10.67-7.16-.97-4.92,2.23-9.71,7.16-10.67,13.72-2.7,27.78-4.67,41.79-5.83,10.89-.9,25.23-1.66,39.49.56,18.3,2.84,35.04,10.17,50.63,17.42,17.77,8.27,35.49,17.18,52.67,26.46,4.42,2.39,6.07,7.9,3.67,12.32-1.72,3.19-5.09,4.93-8.48,4.76Z"/>
  <path class="st3" d="M832.72,1604.95c-3.81-.2-7.22-2.8-8.29-6.68-5.27-19.2-16.54-36.85-31.74-49.71-8.25-6.97-17.59-12.62-27.47-18.59-12.8-7.73-26.01-15.72-36.99-26.97-28.18-28.88-34.28-70.15-38.49-113.46-.49-4.99,3.18-9.44,8.17-9.92,5-.5,9.44,3.18,9.93,8.17,3.87,39.96,9.35,77.87,33.39,102.52,9.36,9.59,21.03,16.64,33.39,24.1,10.06,6.08,20.46,12.36,29.8,20.27,17.99,15.21,31.32,36.08,37.54,58.78,1.33,4.84-1.52,9.84-6.36,11.17-.97.27-1.93.37-2.88.32Z"/>
  <path class="st3" d="M662.43,1304.93c-3.31-.17-6.42-2.16-7.85-5.41-21.55-48.87-14.06-105.02-5.34-153.82.88-4.94,5.58-8.23,10.55-7.35,4.94.88,8.23,5.6,7.35,10.55-8.24,46.16-15.41,99.1,4.08,143.29,2.03,4.59-.06,9.96-4.65,11.98-1.35.6-2.76.83-4.14.76Z"/>
  <path class="st3" d="M2166.74,1131.46c-3.85-.2-7.29-2.85-8.32-6.78-8.21-31.33-17.51-66.85-11.89-102.15.78-4.96,5.33-8.32,10.4-7.55,4.95.79,8.34,5.45,7.54,10.41-5.01,31.52,3.77,65.08,11.53,94.68,1.27,4.86-1.63,9.83-6.49,11.1-.93.24-1.87.34-2.78.29Z"/>
  <path class="st3" d="M2127.6,747.32c-1.36-.07-2.71-.44-3.98-1.16-10.23-5.76-18.75-14.73-23.97-25.24-2.24-4.49-.39-9.95,4.1-12.18,4.5-2.23,9.96-.39,12.19,4.1,3.62,7.28,9.52,13.49,16.6,17.48,4.37,2.46,5.93,8.01,3.47,12.38-1.76,3.12-5.07,4.8-8.41,4.62Z"/>
  <path class="st3" d="M1938.63,524.47c-2.2-.12-4.36-1.02-6.02-2.72-10.08-10.3-22.57-18.35-36.11-23.28-4.71-1.72-7.15-6.93-5.43-11.65,1.71-4.72,6.93-7.16,11.65-5.43,16.08,5.86,30.9,15.41,42.87,27.63,3.51,3.59,3.46,9.35-.13,12.86-1.89,1.85-4.39,2.71-6.84,2.58Z"/>
  <path class="st3" d="M1846.14,806.31c-14.88-.78-30.23-4.44-45.2-10.83-4.62-1.97-6.76-7.31-4.8-11.93,1.97-4.61,7.33-6.74,11.93-4.79,17.95,7.67,36.39,10.83,53.26,9.06,18.3-1.88,35.39-9.83,46.9-21.83,3.47-3.63,9.25-3.73,12.85-.27,3.62,3.47,3.75,9.23.27,12.85-14.66,15.28-35.31,24.99-58.15,27.34-5.58.57-11.28.7-17.05.4Z"/>
  <path class="st3" d="M2018.64,805.91c-.68-.04-1.38-.15-2.06-.35-4.83-1.4-7.6-6.44-6.2-11.26,6.73-23.2,24.91-43.02,47.46-51.71,4.72-1.83,9.95.53,11.75,5.21,1.81,4.68-.53,9.94-5.21,11.75-17.36,6.7-31.36,21.96-36.54,39.82-1.2,4.13-5.07,6.76-9.2,6.54Z"/>
  <path class="st3" d="M2046.72,1457.5c-13.81-.72-27.81-5.51-39.84-14.12-18.29-13.1-31.79-34.34-38.02-59.82-1.18-4.88,1.8-9.8,6.67-10.99,4.9-1.19,9.79,1.8,10.99,6.67,5.19,21.26,16.18,38.79,30.94,49.36,16.08,11.51,37.39,14.05,53.08,6.32,4.5-2.21,9.96-.36,12.17,4.13,2.23,4.5.38,9.95-4.13,12.17-9.75,4.81-20.74,6.86-31.87,6.28Z"/>
  <path class="st3" d="M1759.78,1758.68c-.25-.01-.5-.03-.75-.07-17.95-2.43-35.79-11.41-51.56-25.97-14.15-13.08-24.81-28.6-34.21-43.44-9.02-14.25-17.99-29.78-22.47-46.88-1.27-4.86,1.63-9.83,6.49-11.1,4.84-1.28,9.83,1.63,11.1,6.49,3.63,13.88,10.71,26.73,20.23,41.76,8.74,13.79,18.58,28.16,31.18,39.81,9.08,8.38,23.68,18.88,41.67,21.31,4.98.67,8.46,5.25,7.79,10.23-.64,4.72-4.8,8.1-9.48,7.86Z"/>
  <path class="st3" d="M1892.01,1408.61c-3.24-.17-6.29-2.08-7.77-5.23-7.54-16.12-13.51-33.08-17.76-50.4-1.2-4.88,1.78-9.8,6.66-11,4.91-1.19,9.81,1.79,10.99,6.67,3.97,16.17,9.55,31.99,16.58,47.04,2.13,4.55.16,9.96-4.38,12.08-1.4.66-2.88.92-4.32.84Z"/>
  <path class="st3" d="M1550.44,1643.88c-1.41-.07-2.82-.48-4.11-1.24-57.82-33.92-132.37-39.48-194.56-14.49-4.68,1.88-9.95-.39-11.83-5.05-1.87-4.66.39-9.95,5.05-11.83,67.3-27.03,147.99-21.03,210.53,15.68,4.33,2.54,5.78,8.11,3.24,12.44-1.78,3.03-5.04,4.65-8.32,4.47Z"/>
  <path class="st3" d="M967.55,1263.25c-.38-.02-.77-.06-1.15-.13-4.94-.89-8.22-5.63-7.33-10.57,1.71-9.45,7.32-16.79,12.46-22.92,23.04-27.54,47.51-43.59,72.73-47.71,4.99-.8,9.63,2.55,10.44,7.5.81,4.95-2.56,9.63-7.51,10.44-20.79,3.4-41.56,17.34-61.71,41.43-3.63,4.35-7.6,9.42-8.51,14.5-.83,4.55-4.91,7.69-9.41,7.46Z"/>
  <path class="st3" d="M1077.6,1604.45c-3.23-.17-6.26-2.05-7.75-5.17-6.63-13.96-20.47-23-35.14-32.57-10.8-7.06-21.99-14.35-31.08-24.14-18.56-19.99-25.19-46.83-28.9-67.98-1.06-6.03-1.97-12.11-2.88-18.19-2.55-17.06-4.95-33.17-10.6-48.4-1.74-4.71.65-9.94,5.36-11.68,4.69-1.74,9.94.65,11.68,5.36,6.3,16.99,8.97,34.8,11.54,52.03.89,5.93,1.77,11.85,2.8,17.74,3.27,18.69,8.99,42.25,24.32,58.75,7.58,8.16,17.36,14.54,27.69,21.29,16.12,10.53,32.79,21.41,41.63,39.99,2.15,4.53.22,9.96-4.31,12.11-1.41.67-2.91.95-4.37.87Z"/>
  <path class="st3" d="M843.95,1114.76c-9.89-.52-19.52-2.09-28.65-4.72-32.17-9.28-58.31-31.81-69.89-60.28-5.65-13.85-7.69-28.4-9.69-42.46-1.06-7.54-2.07-14.67-3.59-21.72-1.06-4.91,2.06-9.75,6.97-10.8,4.86-1.07,9.74,2.05,10.8,6.96,1.67,7.69,2.76,15.48,3.83,23.02,1.92,13.56,3.73,26.37,8.52,38.15,9.36,23.01,31.62,42.04,58.09,49.67,24.23,6.98,52.64,5.24,80.03-4.9,4.68-1.75,9.92.65,11.68,5.37,1.74,4.71-.65,9.94-5.37,11.68-20.86,7.72-42.37,11.1-62.73,10.04Z"/>
  <path class="st3" d="M917.69,737.02c-2.06-.11-4.11-.92-5.75-2.46-15.39-14.49-24.46-29.02-27.73-44.43-4.31-20.36,2.16-40.88,7.37-57.37,1.5-4.79,6.63-7.44,11.4-5.93,4.78,1.51,7.44,6.62,5.93,11.4-4.8,15.21-10.24,32.46-6.92,48.13,2.47,11.66,9.81,23.1,22.42,34.96,3.65,3.44,3.83,9.19.38,12.85-1.9,2.03-4.52,2.99-7.1,2.85Z"/>
  <path class="st3" d="M1033.2,469.65c-3.05-.16-5.95-1.85-7.52-4.73-2.4-4.41-.77-9.93,3.64-12.33l39.03-21.25c16.5-8.98,33.56-18.27,52.52-23.52,33.84-9.37,72.68-5.1,109.4,11.97,4.55,2.12,6.52,7.52,4.41,12.08-2.12,4.56-7.52,6.53-12.08,4.41-32.8-15.26-67.2-19.15-96.89-10.93-16.94,4.69-33.07,13.47-48.67,21.97l-39.03,21.25c-1.53.83-3.19,1.18-4.81,1.09Z"/>
  <path class="st3" d="M1291.17,458.22c-1.75-.09-3.48-.68-4.99-1.82-4.01-3.02-4.81-8.72-1.79-12.73,8.08-10.71,20.03-19.34,34.54-24.96,11.03-4.26,23.23-6.88,39.56-8.47,4.98-.51,9.44,3.17,9.94,8.16.48,5-3.17,9.44-8.17,9.93-14.62,1.43-25.34,3.69-34.77,7.33-11.35,4.39-20.54,10.94-26.58,18.95-1.89,2.5-4.83,3.75-7.74,3.6Z"/>
  <path class="st3" d="M1465.22,434.74c-2.31-.12-4.56-1.12-6.25-2.95-6.16-6.77-14.89-11.31-23.96-12.46-4.98-.63-8.51-5.18-7.88-10.16.63-4.97,5.16-8.52,10.16-7.87,13.3,1.68,26.1,8.33,35.13,18.24,3.38,3.72,3.11,9.46-.6,12.84-1.87,1.7-4.26,2.48-6.6,2.36Z"/>
  <path class="st1" d="M1024.25,804.43c12.18,18.98,94.82-21.56,77.73-48.34-17.09-26.78-93.69,23.49-77.73,48.34Z"/>
  <path class="st1" d="M1114.78,735.64c12.94,14.09,46.02-20.02,36.27-37.69-10.24-18.56-57.83,14.21-36.27,37.69Z"/>
  <path class="st1" d="M1560.72,423.88c-7.02,42.66,116.27,12.05,99.09-10.94-17.18-22.99-93.66-22.04-99.09,10.94Z"/>
  <path class="st1" d="M1937.02,997.1c-23.25,11.82,6.12,80.26,24.75,77.63,18.63-2.63-4.97-87.69-24.75-77.63Z"/>
  <path class="st1" d="M1967.06,1089.09c-11.12,2.69-5.03,27.7,6.03,28.26,11.07.56,5.08-30.95-6.03-28.26Z"/>
  <path class="st1" d="M1440.16,1485.53c-6.5,22.98,88.02,34.56,89.59,4.7,1.57-29.86-76.46-51.06-89.59-4.7Z"/>
</svg>